# xmcd
#
# Track frame offsets:
#	150
#	15143
#	30730
#	42803
#	54769
#	68967
#	84321
#	100097
#	114969
#	125607
#	139688
#	150846
#	159567
#	173376
#	186677
#	201951
#	213665
#	228307
#	242692
#	257540
#	272276
#	286229
#	301445
#	316452
#	330773
#
# Disc length: 4597 seconds
#
# Revision: 0
# Processed by: cddbd v1.5.1PL0 Copyright (c) Steve Scherf et al.
# Submitted via: dBpowerAMP V4.0
#
DISCID=3e11f319
DTITLE=Various Artist - The Melody Lingers On - 4
DYEAR=2005
DGENRE=Oldies
TTITLE0=Hello Young Lovers - Perry Como
TTITLE1=Tenderly - Rosemary Clooney
TTITLE2=I Whistle A Happy Tune - Bing Crosby
TTITLE3=A Couple Of Swells - Judy Garland and Fred Astaire
TTITLE4=It Might As Well Be Spring - Dick Haymes
TTITLE5=Someone To Watch Over Me - Frank Sinatra
TTITLE6=Tuxedo Junction - Glenn Miller and His Orchestra
TTITLE7=42nd Street - The Boswell Sisters
TTITLE8=Nice Work If You Can Get It - Peggy Lee
TTITLE9=The Way You Look Tonight - Fred Astaire
TTITLE10=For Me And My Gal - Judy Garland and Gene Kelly
TTITLE11=I Dont Care If The Sun Dont Shine - Dean Martin
TTITLE12=T'ain't What You Do - Ella Fitzgerald with Chick Webb and His Orchestra
TTITLE13=I've Heard That Song Before - Harry James and His Orchestra
TTITLE14=Every Time We Say Goodbye - Benny GoodmanQuintet with Peggy Mann
TTITLE15=Paper Doll - The Mills Brothers
TTITLE16=Begin The Beguine - Artie Shaw and His Orchestra
TTITLE17=Stormy Weather - Kay Starr
TTITLE18=My Prayer - The Ink Spots
TTITLE19=At The Woodchoppers Ball - Woody Herman and His Orchestra 
TTITLE20=One For My Baby (And One More For The Road) - Frank Sinatra
TTITLE21=Moonlight Serenade - Glenn Miller and His Orchestra
TTITLE22=You'll Never Walk Alone - Judy Garland
TTITLE23=Unforgettable - Nat King Cole
TTITLE24=The Song Has Ended ( The Melody LingersOn) - Louis Armstorng
EXTD=The Melody Lingers On - Disc 4 Unforgettable Memories
EXTT0=
EXTT1=
EXTT2=
EXTT3=
EXTT4=
EXTT5=
EXTT6=
EXTT7=
EXTT8=
EXTT9=
EXTT10=
EXTT11=
EXTT12=
EXTT13=
EXTT14=
EXTT15=
EXTT16=
EXTT17=
EXTT18=
EXTT19=
EXTT20=
EXTT21=
EXTT22=
EXTT23=
EXTT24=
PLAYORDER=
